<?xml version="1.0" encoding="iso-8859-1"?>
<!-- Uploaded to: SVG Repo, www.svgrepo.com, Generator: SVG Repo Mixer Tools -->
<svg version="1.1" id="Layer_1" xmlns="http://www.w3.org/2000/svg" xmlns:xlink="http://www.w3.org/1999/xlink" 
	 viewBox="0 0 512.001 512.001" xml:space="preserve">
<polygon style="fill:#CCCCCC;" points="356.612,388.897 439.39,306.12 469.893,336.622 398.325,408.299 355.535,450.981 
	309.835,466.178 325.032,420.478 "/>
<path style="fill:#FEDAAB;" d="M189.656,318.73c15.629,8.192,33.844,12.718,53.892,12.718s38.263-4.635,53.892-12.718v34.276
	c0,0-22.203,26.945-53.892,26.945s-53.892-26.945-53.892-26.945L189.656,318.73L189.656,318.73z"/>
<path style="fill:#4CBD91;" d="M356.612,388.897l-31.581,31.581l-15.197,45.7l45.7-15.197l42.79-42.682l1.509,1.509
	c48.287,31.15,48.503,67.15,48.503,67.15s0,11.856,0,26.945H38.759c0-15.09,0-26.945,0-26.945s0.97-58.958,102.395-91.616
	c0,0,36.755-19.185,48.503-32.335c0,0,22.203,26.945,53.892,26.945s53.892-26.945,53.892-26.945
	c11.748,13.15,48.503,32.335,48.503,32.335C349.714,386.526,353.164,387.712,356.612,388.897z"/>
<path style="fill:#FEDAAB;" d="M297.439,318.73c-15.629,8.084-33.844,12.718-53.892,12.718s-38.263-4.527-53.892-12.718
	c-34.598-18-57.34-53.353-63.161-95.497c-16.706-2.263-33.844-18.108-33.844-31.903c0-14.874,14.443-21.557,32.335-21.557v-21.557
	c0,0,43.113,0,91.616-48.503c0,0,70.059,43.113,145.508,43.113v26.945c17.892,0,32.335,6.682,32.335,21.557
	c0,13.797-17.137,29.64-33.844,31.903C354.78,265.377,332.038,300.73,297.439,318.73z"/>
<path style="fill:#A67C52;" d="M216.601,99.714c-48.503,48.503-91.616,48.503-91.616,48.503v-5.389
	c0,0-5.605-134.729,118.562-134.729c123.951,0,118.562,134.729,118.562,134.729C286.661,142.827,216.601,99.714,216.601,99.714z"/>
<g>
	<path style="fill:#231F20;" d="M410.679,407.386l70.662-70.769l-41.951-41.951l-84.936,84.936
		c-1.741-0.586-3.527-1.178-5.388-1.769c-9.629-5.07-33.312-18.489-43.529-28.132v-26.191c32.68-18.787,55.045-52.405,62.206-93.531
		c18.607-5.311,34.8-22.685,34.8-38.652c0-16.221-12.185-26.993-32.335-29.225v-19.127c0.158-4.58,1.563-67.652-37.994-108.823
		C310.439,11.49,280.608,0,243.548,0c-37.158,0-67.044,11.514-88.826,34.221c-39.48,41.157-38.001,104.123-37.834,108.761v19.124
		c-20.151,2.232-32.335,13.004-32.335,29.225c0,15.967,16.194,33.339,34.799,38.652c7.162,41.134,29.533,74.756,62.206,93.533v26.19
		c-10.217,9.641-33.937,23.08-43.554,28.145C32.942,411.942,30.704,474.186,30.661,476.824l-0.001,35.177h425.773v-35.092
		C456.424,475.332,455.666,439.499,410.679,407.386z M458.446,336.626l-65.843,65.943l-41.434,41.329l-28.548,9.493l9.492-28.542
		L439.391,317.57L458.446,336.626z M197.754,331.273c14.14,5.487,29.485,8.273,45.794,8.273c16.181,0,31.523-2.8,45.794-8.317
		v18.639c-5.573,5.783-23.205,21.985-45.794,21.985c-22.598,0-40.237-16.217-45.794-21.984L197.754,331.273L197.754,331.273z
		 M166.479,45.36c18.604-19.352,44.534-29.164,77.069-29.164c32.442,0,58.322,9.793,76.918,29.107
		c27.707,28.774,32.611,71.659,33.423,89.244c-69.063-2.924-132.388-41.328-133.043-41.729l-5.447-3.353l-4.523,4.523
		c-33.19,33.19-63.757,42.509-77.815,45.119C133.228,125.901,135.981,77.083,166.479,45.36z M134.516,222.127l-0.841-6.092
		l-6.094-0.826c-11.717-1.587-26.833-13.452-26.833-23.879c0-12.488,18.552-13.459,24.237-13.459h8.098v-22.304
		c14.834-2.216,48.103-10.995,84.763-45.763c17.497,9.814,73.821,38.598,136.169,40.961l-0.005,27.105h8.098
		c5.686,0,24.237,0.971,24.237,13.459c0,10.427-15.117,22.292-26.834,23.879l-6.094,0.826l-0.841,6.092
		c-5.559,40.254-27.019,72.846-58.86,89.411c-15.155,7.839-32.034,11.813-50.171,11.813c-18.337,0-35.203-3.968-50.155-11.805
		C161.535,294.972,140.075,262.379,134.516,222.127z M440.238,495.804H46.856v-18.699c0.052-0.948,0.975-13.941,12.483-30.19
		c20.263-28.612,57.024-45.086,84.297-53.867l0.654-0.211l0.61-0.319c3.354-1.751,29.402-15.506,44.481-28.135
		c9.324,8.777,28.869,23.665,54.166,23.665c25.296,0,44.842-14.888,54.166-23.665c14.562,12.195,39.346,25.438,44.051,27.91
		l-23.812,23.812l-20.903,62.858l62.852-20.902l39.146-39.047c39.676,27.209,41.14,56.328,41.19,58.025v18.764H440.238z"/>
	<rect x="195.04" y="425.743" style="fill:#231F20;" width="80.838" height="16.196"/>
	<rect x="168.101" y="458.08" style="fill:#231F20;" width="107.788" height="16.196"/>
	<rect x="130.376" y="458.08" style="fill:#231F20;" width="21.557" height="16.196"/>
</g>
</svg>